<svg xmlns="http://www.w3.org/2000/svg" viewBox="0 0 64 64" role="img" aria-label="福壽螺很多 icon">
  <rect width="64" height="64" rx="14" fill="#d9e6b7"/>
  <path d="M9 47c9-7 20-10 33-8 6 1 11 3 15 6v10H9z" fill="#7fa44b"/>
  <path d="M9 52c12-5 27-6 46-2" fill="none" stroke="#456b2f" stroke-width="4" stroke-linecap="round"/>
  <circle cx="28" cy="29" r="15" fill="#9e6033"/>
  <circle cx="28" cy="29" r="10" fill="#e0ad71"/>
  <circle cx="28" cy="29" r="5" fill="#74431f"/>
  <path d="M37 32c8-1 14 2 17 8-4 5-11 6-18 3-5-2-8-5-8-8 0-2 3-3 9-3z" fill="#65784d"/>
  <path d="M45 29c2-6 5-9 8-9" fill="none" stroke="#65784d" stroke-width="4" stroke-linecap="round"/>
  <circle cx="54" cy="20" r="3" fill="#1f2a1b"/>
  <path d="M13 14h38" stroke="#6f5036" stroke-width="5" stroke-linecap="round"/>
</svg>
